<svg width="206" height="206" viewBox="0 0 206 206" fill="none" xmlns="http://www.w3.org/2000/svg">
<path d="M131.551 141.629L101.313 142.975L71.2804 139.709L50 135.11L62.6454 165.189L99.9031 175L137.919 167.586L153.176 138.395L131.551 141.629Z" fill="white"/>
<path d="M116.915 108.499L101.586 94.2852L86.2607 108.122L92.7389 117.198L101.586 125.663L110.839 116.979" fill="white"/>
<path d="M52.8647 126.079L79.107 93.217L100.149 64.3452L131.895 104.558L137.554 119.998L155.4 93.9224C147.36 83.4224 140.158 83.242 132.118 72.742C121.205 58.4994 114.375 39.4125 103.469 25.1667C94.1177 36.8519 84.7663 48.5372 75.4149 60.2225L83.1667 67.9558L56.5871 85.9991L53.6456 117.296L52.8647 126.079Z" fill="white"/>
</svg>
